<svg width="24" height="24" viewBox="0 0 24 24" fill="none" xmlns="http://www.w3.org/2000/svg">
<path d="M20.4481 20.449H16.8921V14.8799C16.8921 13.552 16.8684 11.8424 15.0426 11.8424C13.1905 11.8424 12.9071 13.2894 12.9071 14.7833V20.4486H9.35115V8.99648H12.7649V10.5615H12.8127C13.1543 9.97739 13.648 9.49683 14.2411 9.17105C14.8343 8.84528 15.5047 8.68648 16.1809 8.71157C19.7851 8.71157 20.4496 11.0823 20.4496 14.1665L20.4481 20.449ZM5.33865 7.43113C4.19893 7.43132 3.27484 6.50751 3.27465 5.36779C3.27446 4.22807 4.19818 3.30398 5.3379 3.30379C6.47762 3.30351 7.40171 4.22732 7.4019 5.36704C7.402 5.91436 7.18468 6.4393 6.79775 6.82639C6.41082 7.21348 5.88596 7.43101 5.33865 7.43113ZM7.11671 20.4491H3.55693V8.99648H7.11662V20.449L7.11671 20.4491ZM22.221 0.00125846H1.77005C0.803492 -0.00961654 0.0108359 0.764665 -0.000976562 1.73123V22.2674C0.0104609 23.2345 0.803023 24.0095 1.76996 23.9994H22.221C23.19 24.0114 23.9856 23.2364 23.999 22.2674V1.72963C23.9852 0.761196 23.1895 -0.0129915 22.221 -0.000335291" fill="#0A66C2"/>
</svg>
