<svg width="30" height="24" viewBox="0 0 30 24" fill="none" xmlns="http://www.w3.org/2000/svg">
<path d="M29.3986 2.92233C28.3169 3.40199 27.1545 3.72616 25.9346 3.872C27.1799 3.12559 28.1361 1.94362 28.5864 0.53531C27.4025 1.23784 26.1073 1.73281 24.7566 1.99885C23.6564 0.826755 22.089 0.0942383 20.3543 0.0942383C17.0234 0.0942383 14.3229 2.79464 14.3229 6.12524C14.3229 6.59801 14.3763 7.05826 14.4791 7.49979C9.46665 7.24819 5.02263 4.84716 2.0479 1.19824C1.52885 2.08899 1.23144 3.12513 1.23144 4.23028C1.23144 6.32275 2.29628 8.16869 3.9145 9.2503C2.95674 9.2203 2.02005 8.96162 1.18263 8.49585C1.18229 8.52111 1.18229 8.54637 1.18229 8.57175C1.18229 11.4939 3.26122 13.9316 6.02018 14.4856C5.13205 14.7272 4.20046 14.7625 3.29658 14.589C4.06401 16.9851 6.29142 18.7287 8.9305 18.7775C6.86638 20.395 4.26577 21.3593 1.4402 21.3593C0.953312 21.3593 0.473312 21.3307 0.00146484 21.275C2.67052 22.9862 5.8407 23.9847 9.24663 23.9847C20.3403 23.9847 26.4065 14.7945 26.4065 6.82469C26.4065 6.5631 26.4008 6.303 26.3891 6.0444C27.5698 5.19083 28.5889 4.1336 29.3986 2.92233Z" fill="#55ACEE"/>
</svg>
